# Simple Cube OBJ
v -0.5 -0.5 -0.5
v  0.5 -0.5 -0.5
v  0.5  0.5 -0.5
v -0.5  0.5 -0.5
v -0.5 -0.5  0.5
v  0.5 -0.5  0.5
v  0.5  0.5  0.5
v -0.5  0.5  0.5

vt 0 0
vt 1 0
vt 1 1
vt 0 1

vn 0 0 -1
vn 0 0 1
vn 0 -1 0
vn 0 1 0
vn -1 0 0
vn 1 0 0

# Front
f 5/1/2 6/2/2 7/3/2
f 5/1/2 7/3/2 8/4/2
# Back
f 4/4/1 3/3/1 2/2/1
f 4/4/1 2/2/1 1/1/1
# Top
f 8/1/4 7/2/4 3/3/4
f 8/1/4 3/3/4 4/4/4
# Bottom
f 1/1/3 2/2/3 6/3/3
f 1/1/3 6/3/3 5/4/3
# Right
f 6/1/6 2/2/6 3/3/6
f 6/1/6 3/3/6 7/4/6
# Left
f 1/1/5 5/2/5 8/3/5
f 1/1/5 8/3/5 4/4/5
